<?xml version="1.0" standalone="no"?>
<!DOCTYPE svg PUBLIC "-//W3C//DTD SVG 20010904//EN"
 "http://www.w3.org/TR/2001/REC-SVG-20010904/DTD/svg10.dtd">
<svg version="1.0" xmlns="http://www.w3.org/2000/svg"
 width="512.000000pt" height="512.000000pt" viewBox="0 0 512.000000 512.000000"
 preserveAspectRatio="xMidYMid meet">

<g transform="translate(0.000000,512.000000) scale(0.100000,-0.100000)"
fill="#000000" stroke="none">
<path d="M2430 5114 c-205 -20 -450 -99 -631 -205 -297 -173 -470 -467 -470
-799 0 -63 27 -438 61 -833 l60 -718 -20 -242 c-12 -132 -22 -242 -23 -243 -1
-1 -85 31 -187 72 -102 40 -193 74 -202 74 -9 0 -30 -12 -47 -26 l-31 -26 0
-150 c0 -89 5 -167 12 -191 7 -22 33 -62 58 -89 40 -44 61 -56 200 -112 l155
-63 -2 -34 c-2 -19 -10 -119 -19 -224 -10 -115 -14 -233 -11 -300 15 -293 174
-567 422 -728 68 -43 377 -182 500 -225 224 -76 448 -66 691 32 328 132 442
194 557 305 122 117 204 254 253 418 35 121 41 259 20 498 -9 105 -17 205 -19
224 l-2 34 155 63 c139 56 160 68 200 112 25 27 51 67 58 89 7 24 12 102 12
191 l0 150 -31 26 c-17 14 -38 26 -48 26 -9 0 -100 -33 -201 -74 -102 -41
-186 -73 -187 -72 -1 1 -11 110 -23 243 l-20 241 60 723 c34 398 61 774 61
834 -1 274 -127 534 -341 706 -155 124 -399 230 -630 274 -85 16 -308 26 -390
19z m335 -185 c152 -24 345 -95 484 -178 165 -98 283 -250 340 -436 41 -130
39 -198 -29 -1006 l-63 -745 63 -750 c41 -491 60 -771 56 -814 -16 -179 -113
-383 -232 -491 -89 -80 -163 -120 -406 -223 -203 -86 -284 -107 -418 -107
-134 0 -214 21 -418 107 -227 96 -302 137 -383 212 -160 148 -235 301 -248
510 -6 88 3 237 52 827 l60 720 -62 745 c-34 410 -61 777 -61 815 1 127 40
261 111 383 46 78 170 200 256 251 278 165 595 229 898 180z m-1529 -2977
l119 -48 3 -72 c2 -40 -1 -72 -5 -72 -4 0 -55 19 -112 42 -91 36 -105 45 -117
74 -12 28 -20 124 -11 124 2 0 57 -22 123 -48z m2774 3 c0 -89 -15 -107 -131
-153 -57 -23 -108 -42 -112 -42 -4 0 -7 32 -5 72 l3 72 115 47 c63 26 118 48
123 48 4 1 7 -19 7 -44z"/>
<path d="M2345 4441 c-113 -25 -176 -47 -288 -102 -232 -115 -294 -166 -323
-265 -16 -57 -16 -59 26 -316 l43 -258 757 0 757 0 43 258 c42 257 42 259 26
316 -29 98 -93 151 -319 264 -112 55 -178 78 -296 103 -119 24 -311 24 -426 0z
m432 -182 c99 -25 170 -55 306 -128 71 -39 119 -72 128 -87 11 -22 9 -49 -15
-200 l-29 -174 -144 0 -145 0 -101 41 c-125 50 -335 158 -450 232 -102 66
-267 188 -267 197 0 11 172 88 248 110 140 42 325 46 469 9z"/>
<path d="M1795 2438 c-16 -122 -75 -754 -75 -810 0 -80 34 -154 93 -202 120
-97 341 -190 537 -227 87 -17 327 -16 420 0 143 25 302 83 425 154 157 90 205
156 205 282 0 60 -58 677 -75 803 l-6 42 -759 0 -759 0 -6 -42z m1369 -160 c3
-13 19 -169 37 -347 36 -374 41 -345 -69 -411 l-62 -38 -86 19 c-265 58 -563
200 -788 376 -39 31 -113 97 -164 147 l-93 91 6 65 c4 36 9 77 11 93 l6 27
599 0 599 0 4 -22z"/>
<path d="M1792 1112 c-39 -26 -71 -50 -69 -53 10 -25 334 -509 341 -509 12 0
136 89 136 98 0 4 -76 120 -168 259 l-168 252 -72 -47z"/>
<path d="M3089 908 c-89 -133 -164 -249 -166 -258 -2 -10 20 -30 62 -57 36
-24 68 -43 72 -43 10 1 348 509 342 514 -25 20 -130 86 -138 86 -6 0 -84 -109
-172 -242z"/>
</g>
</svg>
