<?xml version="1.0" standalone="no"?>
<!DOCTYPE svg PUBLIC "-//W3C//DTD SVG 20010904//EN"
 "http://www.w3.org/TR/2001/REC-SVG-20010904/DTD/svg10.dtd">
<svg version="1.0" xmlns="http://www.w3.org/2000/svg"
 width="119.000000pt" height="240.000000pt" viewBox="0 0 119.000000 240.000000"
 preserveAspectRatio="xMidYMid meet">

<g transform="translate(0.000000,240.000000) scale(0.100000,-0.100000)"
fill="#000000" stroke="none">
<path d="M357 2390 c-194 -24 -196 -26 -230 -166 -57 -235 -62 -305 -43 -614
16 -253 21 -561 10 -572 -3 -3 -21 -2 -41 4 -41 11 -55 0 -51 -42 2 -19 15
-31 51 -49 l47 -23 0 -122 c0 -80 -5 -135 -15 -161 -19 -53 -19 -222 0 -304
21 -87 58 -151 122 -212 92 -87 218 -129 388 -129 170 0 296 42 388 129 64 61
101 125 122 212 19 82 19 251 0 304 -10 26 -15 81 -15 161 l0 122 47 23 c36
18 49 30 51 49 4 42 -10 53 -51 42 -20 -6 -38 -7 -41 -4 -11 11 -6 319 10 572
17 279 14 336 -22 515 -45 225 -51 234 -174 255 -82 15 -463 21 -553 10z m493
-20 c47 -6 103 -17 126 -25 40 -15 42 -18 62 -93 62 -228 62 -239 47 -891 -8
-344 -7 -353 11 -348 68 21 74 20 74 -6 0 -21 -8 -28 -46 -43 l-45 -17 5 -156
c3 -86 9 -207 12 -269 6 -131 -5 -196 -47 -281 -28 -56 -32 -59 -73 -65 -59
-9 -109 -44 -121 -84 -15 -51 -75 -67 -260 -67 -185 0 -245 16 -260 67 -12 40
-62 75 -121 84 -41 6 -45 9 -73 65 -42 85 -53 150 -47 281 3 62 9 183 12 269
l5 156 -45 17 c-38 15 -46 22 -46 43 0 26 6 27 74 6 18 -5 19 4 11 348 -15
644 -14 665 47 891 20 75 22 78 62 93 23 8 73 19 111 24 100 12 425 13 525 1z"/>
<path d="M495 2196 c-67 -17 -131 -51 -151 -80 -19 -30 -49 -223 -41 -258 11
-42 49 -48 292 -48 243 0 281 6 292 48 8 35 -22 228 -41 258 -32 48 -163 95
-259 93 -23 0 -64 -6 -92 -13z"/>
<path d="M227 1934 c-10 -11 13 -34 34 -34 17 0 35 17 27 25 -8 9 -54 15 -61
9z"/>
<path d="M917 1933 c-22 -6 -17 -27 7 -31 20 -4 48 16 40 29 -5 9 -17 10 -47
2z"/>
<path d="M225 1880 c-3 -4 2 -13 10 -20 15 -13 45 -7 45 9 0 11 -49 21 -55 11z"/>
<path d="M933 1882 c-13 -2 -23 -8 -23 -13 0 -18 31 -22 47 -7 17 18 8 26 -24
20z"/>
<path d="M216 1744 c-48 -48 -50 -72 -47 -504 1 -198 5 -290 11 -280 22 34 60
174 74 279 16 111 22 462 10 509 -8 28 -15 28 -48 -4z"/>
<path d="M926 1748 c-12 -47 -6 -398 10 -509 14 -105 52 -245 74 -279 6 -10
10 82 11 280 3 432 1 456 -47 504 -33 32 -40 32 -48 4z"/>
<path d="M292 1063 c-35 -14 -90 -221 -77 -290 37 -200 557 -252 720 -72 44
49 50 88 30 190 -19 98 -42 156 -66 170 -18 9 -583 12 -607 2z"/>
<path d="M280 434 c0 -10 38 -21 49 -15 9 6 3 10 -18 13 -17 2 -31 3 -31 2z"/>
<path d="M875 431 c-23 -5 -26 -8 -13 -13 9 -4 24 0 35 7 10 8 16 14 13 13 -3
0 -18 -3 -35 -7z"/>
<path d="M300 390 c8 -5 22 -9 30 -9 10 0 8 3 -5 9 -27 12 -43 12 -25 0z"/>
<path d="M865 390 c-13 -6 -15 -9 -5 -9 8 0 22 4 30 9 18 12 2 12 -25 0z"/>
<path d="M270 382 c0 -21 22 -68 42 -89 22 -23 68 -32 68 -13 0 6 -8 10 -18
10 -10 0 -27 7 -38 15 -18 14 -17 14 14 9 19 -4 32 -2 32 4 0 5 -8 8 -18 5
-10 -2 -29 5 -43 16 l-24 21 35 -5 c33 -5 33 -4 7 4 -16 5 -35 15 -43 22 -9 7
-14 8 -14 1z"/>
<path d="M906 381 c-4 -6 -21 -15 -39 -21 l-32 -10 35 5 35 5 -24 -21 c-14
-11 -33 -18 -43 -16 -10 3 -18 0 -18 -5 0 -6 13 -8 33 -4 30 5 31 5 13 -9 -11
-8 -28 -15 -38 -15 -10 0 -18 -4 -18 -10 0 -19 47 -10 68 13 23 24 48 84 39
93 -3 3 -8 1 -11 -5z"/>
</g>
</svg>
