<?xml version="1.0" standalone="no"?>
<!DOCTYPE svg PUBLIC "-//W3C//DTD SVG 20010904//EN"
 "http://www.w3.org/TR/2001/REC-SVG-20010904/DTD/svg10.dtd">
<svg version="1.0" xmlns="http://www.w3.org/2000/svg"
 width="476.000000pt" height="960.000000pt" viewBox="0 0 476.000000 960.000000"
 preserveAspectRatio="xMidYMid meet">

<g transform="translate(0.000000,960.000000) scale(0.100000,-0.100000)"
fill="#000000" stroke="none">
<path d="M1870 9589 c-720 -32 -1134 -115 -1232 -249 -34 -46 -168 -554 -237
-895 -91 -449 -116 -719 -107 -1140 5 -276 11 -377 56 -1080 32 -505 42 -893
39 -1503 -2 -319 -7 -584 -11 -587 -4 -4 -75 9 -157 30 -83 20 -157 35 -164
32 -17 -6 -57 -126 -57 -170 0 -53 28 -121 63 -155 23 -22 77 -49 173 -86
l139 -55 0 -528 0 -528 -32 -85 c-57 -150 -67 -238 -67 -570 1 -224 5 -326 18
-423 142 -1046 863 -1597 2086 -1597 1027 0 1718 400 1980 1145 93 266 123
478 124 875 0 332 -10 420 -67 570 l-32 85 0 528 0 528 139 55 c144 55 200 93
212 141 4 13 10 23 15 23 31 0 -15 234 -48 247 -7 3 -81 -12 -164 -32 -82 -21
-153 -34 -157 -30 -12 12 -15 1160 -3 1477 6 167 25 512 41 768 66 1034 66
1258 5 1690 -46 316 -129 695 -240 1085 -25 88 -53 171 -63 185 -100 136 -504
217 -1262 250 -254 11 -729 11 -990 -1z m1210 -79 c556 -38 891 -107 976 -202
33 -36 177 -575 243 -908 65 -330 91 -555 98 -850 6 -267 -2 -478 -47 -1190
-45 -710 -52 -986 -44 -1692 4 -346 8 -628 10 -628 2 0 79 18 170 40 92 22
170 40 174 40 11 0 30 -58 30 -92 0 -34 -21 -88 -43 -110 -9 -9 -89 -44 -177
-79 l-160 -62 0 -552 0 -553 25 -54 c75 -164 100 -451 75 -850 -12 -189 -48
-390 -96 -541 -45 -142 -147 -351 -216 -442 -49 -64 -56 -70 -93 -72 -227 -15
-395 -81 -508 -202 -65 -69 -95 -135 -112 -243 l-6 -38 -123 -39 c-279 -89
-478 -115 -876 -115 -398 0 -597 26 -876 115 l-123 39 -6 38 c-17 108 -47 174
-112 243 -113 121 -281 187 -508 202 -37 2 -44 8 -93 72 -69 92 -162 281 -211
430 -59 177 -90 361 -103 613 -20 367 10 661 82 802 19 38 20 57 20 593 l0
554 -160 62 c-88 35 -168 70 -177 79 -22 22 -43 76 -43 110 0 34 19 92 30 92
4 0 82 -18 174 -40 91 -22 168 -40 170 -40 2 0 7 285 10 633 8 709 2 966 -44
1692 -66 1058 -67 1269 -4 1704 44 312 118 648 230 1048 53 190 63 206 154
247 180 81 546 131 1170 160 147 7 968 -3 1120 -14z"/>
<path d="M2320 8834 c-321 -30 -541 -88 -722 -190 -138 -78 -217 -154 -262
-255 -36 -79 -161 -858 -147 -918 12 -55 55 -125 94 -155 76 -58 34 -56 1097
-56 1064 0 1021 -2 1097 56 38 29 88 111 98 161 4 21 -18 183 -60 446 -56 351
-71 421 -96 476 -90 196 -414 363 -802 415 -117 16 -246 24 -297 20z"/>
<path d="M898 7748 c-10 -34 -9 -45 9 -82 l21 -43 94 -12 93 -12 28 31 c16 17
27 38 25 46 -2 9 -55 35 -131 63 l-127 48 -12 -39z"/>
<path d="M3720 7739 c-75 -29 -126 -54 -128 -62 -2 -9 10 -30 25 -47 l28 -31
90 11 c72 9 94 16 107 33 25 31 32 78 16 113 l-13 30 -125 -47z"/>
<path d="M886 7542 c-2 -4 0 -29 6 -55 12 -56 22 -62 125 -72 64 -7 72 -5 91
15 18 19 35 70 27 78 -3 3 -116 23 -202 36 -23 3 -44 3 -47 -2z"/>
<path d="M3785 7538 c-134 -20 -167 -29 -161 -45 3 -8 6 -20 6 -27 0 -7 10
-23 21 -35 20 -22 27 -23 92 -16 103 10 113 16 125 72 6 26 8 51 6 55 -6 9 -7
9 -89 -4z"/>
<path d="M971 7070 c-160 -104 -242 -248 -289 -510 -15 -83 -16 -149 -12 -530
7 -685 6 -1483 -3 -1871 l-7 -357 24 -4 c22 -4 28 2 50 51 245 546 383 1479
362 2446 -3 165 -10 356 -16 425 -20 263 -33 390 -40 390 -4 0 -35 -18 -69
-40z"/>
<path d="M3701 6978 c-25 -288 -31 -394 -37 -683 -21 -967 118 -1900 362
-2446 22 -49 28 -55 50 -51 l24 4 -7 357 c-11 476 -10 1353 1 1791 6 262 5
391 -4 490 -29 324 -119 512 -301 630 -34 22 -65 40 -69 40 -4 0 -12 -60 -19
-132z"/>
<path d="M1215 4264 c-55 -19 -106 -63 -148 -126 -68 -104 -93 -185 -158 -523
-33 -176 -63 -345 -66 -376 -12 -126 45 -290 142 -411 97 -120 283 -242 490
-321 199 -76 433 -120 723 -139 385 -25 832 35 1113 148 193 78 373 199 464
312 59 73 120 200 136 280 16 87 9 150 -61 512 -64 331 -89 415 -156 515 -41
63 -67 87 -124 117 l-45 23 -1135 2 c-966 1 -1141 -1 -1175 -13z"/>
<path d="M814 2895 c-9 -22 3 -305 22 -525 47 -555 149 -1040 299 -1415 72
-181 195 -394 271 -469 92 -91 259 -178 442 -231 93 -27 118 -30 127 -16 3 5
-67 191 -156 413 -258 644 -293 748 -499 1463 -52 178 -68 214 -89 201 -17
-11 -14 -27 35 -194 212 -729 253 -850 485 -1432 86 -217 156 -397 153 -399
-8 -8 -223 73 -294 111 -163 87 -220 149 -334 369 -233 448 -369 1075 -409
1894 -11 215 -14 240 -30 243 -9 2 -20 -4 -23 -13z"/>
<path d="M3906 2898 c-2 -7 -9 -121 -15 -253 -37 -790 -175 -1429 -407 -1874
-114 -220 -171 -282 -334 -369 -72 -39 -286 -119 -295 -111 -2 3 67 182 154
399 193 484 241 615 324 890 116 381 207 697 207 714 0 16 -26 33 -36 23 -3
-3 -21 -58 -40 -123 -259 -882 -288 -966 -599 -1732 -47 -117 -83 -217 -79
-223 9 -15 65 -5 176 32 176 59 304 129 392 216 110 107 253 389 352 692 132
406 230 1049 237 1551 2 159 0 175 -16 178 -9 2 -19 -2 -21 -10z"/>
<path d="M983 1855 c151 -540 155 -553 230 -650 90 -118 197 -160 294 -115 41
18 42 20 32 49 -9 27 -13 29 -35 20 -84 -31 -193 24 -286 145 l-32 41 30 -26
c89 -80 178 -106 244 -72 36 19 46 38 32 61 -7 11 -16 10 -46 -4 -32 -16 -43
-16 -84 -6 -58 16 -136 68 -194 130 -38 41 -48 61 -76 162 -57 200 -74 249
-95 267 -19 17 -19 17 -14 -2z"/>
<path d="M3758 1853 c-17 -19 -38 -81 -90 -263 -29 -101 -38 -121 -77 -163
-100 -107 -213 -157 -281 -122 -27 14 -34 15 -41 3 -14 -22 -10 -37 15 -53 64
-42 149 -26 234 43 l57 46 -32 -40 c-97 -122 -204 -176 -287 -145 -22 9 -26 7
-35 -20 -10 -30 -9 -31 36 -51 134 -59 312 73 382 285 31 94 141 490 138 494
-2 2 -11 -5 -19 -14z"/>
<path d="M1040 1823 c0 -5 20 -33 44 -64 77 -98 197 -137 257 -83 22 19 22 23
9 44 -7 12 -12 12 -22 2 -16 -16 -91 -15 -131 2 -18 7 -58 34 -89 60 -57 46
-68 53 -68 39z"/>
<path d="M3650 1783 c-30 -25 -69 -52 -87 -59 -40 -17 -115 -18 -131 -2 -10
10 -15 10 -22 -2 -13 -21 -13 -25 9 -44 60 -54 180 -15 257 83 68 86 59 95
-26 24z"/>
<path d="M1080 1682 c0 -19 62 -93 101 -121 76 -55 145 -63 197 -23 27 21 21
58 -7 46 -67 -31 -151 -7 -234 66 -46 41 -57 47 -57 32z"/>
<path d="M3622 1650 c-80 -72 -166 -97 -233 -66 -28 12 -34 -25 -7 -46 71 -55
191 -13 268 94 50 69 38 78 -28 18z"/>
<path d="M1130 1501 c5 -10 26 -33 46 -51 76 -66 163 -87 226 -54 27 14 29 18
15 26 -9 5 -41 12 -69 15 -29 3 -80 19 -113 35 -33 17 -72 34 -87 39 -25 7
-27 6 -18 -10z"/>
<path d="M3600 1505 c-19 -7 -58 -24 -86 -39 -29 -14 -67 -26 -85 -27 -19 0
-50 -6 -69 -13 l-35 -13 32 -16 c64 -34 151 -13 227 53 30 27 66 72 54 69 -2
0 -19 -6 -38 -14z"/>
</g>
</svg>
