<?xml version="1.0" encoding="UTF-8"?>
<svg xmlns="http://www.w3.org/2000/svg" xmlns:xlink="http://www.w3.org/1999/xlink" width="159px" height="320px" viewBox="0 0 89 179" version="1.1">
<g id="surface1">
<path style=" stroke:none;fill-rule:nonzero;fill:rgb(0%,0%,0%);fill-opacity:1;" d="M 26.65625 0.746094 C 12.171875 2.535156 12.019531 2.683594 9.480469 13.125 C 5.226562 30.652344 4.851562 35.875 6.273438 58.921875 C 7.464844 77.789062 7.839844 100.761719 7.019531 101.582031 C 6.792969 101.804688 5.449219 101.730469 3.957031 101.285156 C 0.894531 100.464844 -0.148438 101.285156 0.148438 104.417969 C 0.296875 105.832031 1.269531 106.730469 3.957031 108.070312 L 7.464844 109.785156 L 7.464844 118.886719 C 7.464844 124.851562 7.09375 128.953125 6.347656 130.894531 C 4.929688 134.847656 4.929688 147.453125 6.347656 153.566406 C 7.914062 160.054688 10.675781 164.828125 15.457031 169.378906 C 22.324219 175.867188 31.730469 179 44.425781 179 C 57.117188 179 66.527344 175.867188 73.394531 169.378906 C 78.171875 164.828125 80.9375 160.054688 82.503906 153.566406 C 83.921875 147.453125 83.921875 134.847656 82.503906 130.894531 C 81.757812 128.953125 81.382812 124.851562 81.382812 118.886719 L 81.382812 109.785156 L 84.894531 108.070312 C 87.582031 106.730469 88.550781 105.832031 88.703125 104.417969 C 89 101.285156 87.953125 100.464844 84.894531 101.285156 C 83.398438 101.730469 82.054688 101.804688 81.832031 101.582031 C 81.011719 100.761719 81.382812 77.789062 82.578125 58.921875 C 83.847656 38.113281 83.625 33.859375 80.9375 20.511719 C 77.578125 3.730469 77.128906 3.058594 67.945312 1.492188 C 61.820312 0.371094 33.375 -0.0742188 26.65625 0.746094 Z M 63.464844 2.238281 C 66.972656 2.683594 71.15625 3.503906 72.871094 4.101562 C 75.859375 5.222656 76.007812 5.445312 77.5 11.039062 C 82.132812 28.042969 82.132812 28.863281 81.011719 77.492188 C 80.414062 103.148438 80.488281 103.820312 81.832031 103.445312 C 86.910156 101.878906 87.355469 101.957031 87.355469 103.894531 C 87.355469 105.460938 86.761719 105.984375 83.921875 107.101562 L 80.5625 108.371094 L 80.9375 120.003906 C 81.160156 126.417969 81.609375 135.441406 81.832031 140.066406 C 82.28125 149.839844 81.457031 154.6875 78.324219 161.027344 C 76.230469 165.203125 75.933594 165.425781 72.871094 165.875 C 68.46875 166.542969 64.734375 169.15625 63.839844 172.136719 C 62.71875 175.941406 58.238281 177.136719 44.425781 177.136719 C 30.613281 177.136719 26.132812 175.941406 25.011719 172.136719 C 24.117188 169.15625 20.382812 166.542969 15.976562 165.875 C 12.917969 165.425781 12.617188 165.203125 10.527344 161.027344 C 7.390625 154.6875 6.570312 149.839844 7.019531 140.066406 C 7.242188 135.441406 7.691406 126.417969 7.914062 120.003906 L 8.289062 108.371094 L 4.929688 107.101562 C 2.089844 105.984375 1.492188 105.460938 1.492188 103.894531 C 1.492188 101.957031 1.941406 101.878906 7.019531 103.445312 C 8.363281 103.820312 8.4375 103.148438 7.839844 77.492188 C 6.71875 29.460938 6.792969 27.894531 11.347656 11.039062 C 12.84375 5.445312 12.992188 5.222656 15.976562 4.101562 C 17.695312 3.503906 21.429688 2.683594 24.265625 2.3125 C 31.730469 1.417969 56 1.34375 63.464844 2.238281 Z M 63.464844 2.238281 "/>
<path style=" stroke:none;fill-rule:nonzero;fill:rgb(0%,0%,0%);fill-opacity:1;" d="M 36.957031 15.214844 C 31.957031 16.484375 27.179688 19.019531 25.683594 21.183594 C 24.265625 23.417969 22.027344 37.8125 22.625 40.425781 C 23.445312 43.558594 26.28125 44.003906 44.425781 44.003906 C 62.570312 44.003906 65.40625 43.558594 66.226562 40.425781 C 66.824219 37.8125 64.585938 23.417969 63.167969 21.183594 C 60.777344 17.601562 50.996094 14.097656 43.828125 14.246094 C 42.109375 14.246094 39.050781 14.691406 36.957031 15.214844 Z M 36.957031 15.214844 "/>
<path style=" stroke:none;fill-rule:nonzero;fill:rgb(0%,0%,0%);fill-opacity:1;" d="M 16.949219 34.753906 C 16.203125 35.578125 17.917969 37.292969 19.488281 37.292969 C 20.757812 37.292969 22.101562 36.023438 21.503906 35.425781 C 20.90625 34.753906 17.472656 34.308594 16.949219 34.753906 Z M 16.949219 34.753906 "/>
<path style=" stroke:none;fill-rule:nonzero;fill:rgb(0%,0%,0%);fill-opacity:1;" d="M 68.46875 34.832031 C 66.824219 35.277344 67.199219 36.84375 68.988281 37.140625 C 70.484375 37.441406 72.574219 35.949219 71.976562 34.980469 C 71.601562 34.308594 70.707031 34.234375 68.46875 34.832031 Z M 68.46875 34.832031 "/>
<path style=" stroke:none;fill-rule:nonzero;fill:rgb(0%,0%,0%);fill-opacity:1;" d="M 16.800781 38.785156 C 16.574219 39.082031 16.949219 39.753906 17.546875 40.273438 C 18.667969 41.246094 20.90625 40.796875 20.90625 39.605469 C 20.90625 38.785156 17.246094 38.039062 16.800781 38.785156 Z M 16.800781 38.785156 "/>
<path style=" stroke:none;fill-rule:nonzero;fill:rgb(0%,0%,0%);fill-opacity:1;" d="M 69.660156 38.632812 C 68.691406 38.785156 67.945312 39.230469 67.945312 39.605469 C 67.945312 40.945312 70.257812 41.246094 71.453125 40.125 C 72.722656 38.785156 72.050781 38.1875 69.660156 38.632812 Z M 69.660156 38.632812 "/>
<path style=" stroke:none;fill-rule:nonzero;fill:rgb(0%,0%,0%);fill-opacity:1;" d="M 16.128906 48.925781 C 12.542969 52.507812 12.394531 54.296875 12.617188 86.515625 C 12.691406 101.285156 12.992188 108.144531 13.441406 107.398438 C 15.082031 104.863281 17.917969 94.421875 18.964844 86.589844 C 20.160156 78.3125 20.605469 52.132812 19.710938 48.628906 C 19.113281 46.539062 18.589844 46.539062 16.128906 48.925781 Z M 16.128906 48.925781 "/>
<path style=" stroke:none;fill-rule:nonzero;fill:rgb(0%,0%,0%);fill-opacity:1;" d="M 69.140625 48.628906 C 68.242188 52.132812 68.691406 78.3125 69.886719 86.589844 C 70.929688 94.421875 73.769531 104.863281 75.410156 107.398438 C 75.859375 108.144531 76.15625 101.285156 76.230469 86.515625 C 76.457031 54.296875 76.308594 52.507812 72.722656 48.925781 C 70.257812 46.539062 69.738281 46.539062 69.140625 48.628906 Z M 69.140625 48.628906 "/>
<path style=" stroke:none;fill-rule:nonzero;fill:rgb(0%,0%,0%);fill-opacity:1;" d="M 21.800781 99.71875 C 19.1875 100.761719 15.082031 116.199219 16.054688 121.347656 C 18.816406 136.265625 57.640625 140.140625 69.8125 126.71875 C 73.097656 123.0625 73.542969 120.152344 72.050781 112.546875 C 70.632812 105.238281 68.914062 100.910156 67.125 99.867188 C 65.78125 99.195312 23.59375 98.972656 21.800781 99.71875 Z M 21.800781 99.71875 "/>
<path style=" stroke:none;fill-rule:nonzero;fill:rgb(0%,0%,0%);fill-opacity:1;" d="M 20.90625 146.628906 C 20.90625 147.375 23.742188 148.195312 24.566406 147.75 C 25.238281 147.300781 24.789062 147.003906 23.21875 146.78125 C 21.953125 146.628906 20.90625 146.554688 20.90625 146.628906 Z M 20.90625 146.628906 "/>
<path style=" stroke:none;fill-rule:nonzero;fill:rgb(0%,0%,0%);fill-opacity:1;" d="M 65.332031 146.855469 C 63.613281 147.226562 63.390625 147.453125 64.359375 147.824219 C 65.03125 148.121094 66.152344 147.824219 66.972656 147.300781 C 67.71875 146.707031 68.167969 146.257812 67.945312 146.332031 C 67.71875 146.332031 66.601562 146.554688 65.332031 146.855469 Z M 65.332031 146.855469 "/>
<path style=" stroke:none;fill-rule:nonzero;fill:rgb(0%,0%,0%);fill-opacity:1;" d="M 22.398438 149.914062 C 22.996094 150.285156 24.042969 150.582031 24.640625 150.582031 C 25.386719 150.582031 25.238281 150.359375 24.265625 149.914062 C 22.25 149.015625 21.054688 149.015625 22.398438 149.914062 Z M 22.398438 149.914062 "/>
<path style=" stroke:none;fill-rule:nonzero;fill:rgb(0%,0%,0%);fill-opacity:1;" d="M 64.585938 149.914062 C 63.613281 150.359375 63.464844 150.582031 64.210938 150.582031 C 64.808594 150.582031 65.855469 150.285156 66.453125 149.914062 C 67.796875 149.015625 66.601562 149.015625 64.585938 149.914062 Z M 64.585938 149.914062 "/>
<path style=" stroke:none;fill-rule:nonzero;fill:rgb(0%,0%,0%);fill-opacity:1;" d="M 20.160156 150.507812 C 20.160156 152.074219 21.800781 155.582031 23.296875 157.148438 C 24.9375 158.863281 28.371094 159.535156 28.371094 158.117188 C 28.371094 157.667969 27.773438 157.371094 27.027344 157.371094 C 26.28125 157.371094 25.011719 156.847656 24.191406 156.253906 C 22.847656 155.207031 22.921875 155.207031 25.238281 155.582031 C 26.65625 155.878906 27.625 155.730469 27.625 155.28125 C 27.625 154.910156 27.027344 154.6875 26.28125 154.910156 C 25.535156 155.058594 24.117188 154.535156 23.070312 153.714844 L 21.28125 152.148438 L 23.894531 152.523438 C 26.355469 152.894531 26.355469 152.820312 24.414062 152.222656 C 23.21875 151.851562 21.800781 151.105469 21.203125 150.582031 C 20.53125 150.0625 20.160156 149.988281 20.160156 150.507812 Z M 20.160156 150.507812 "/>
<path style=" stroke:none;fill-rule:nonzero;fill:rgb(0%,0%,0%);fill-opacity:1;" d="M 67.644531 150.582031 C 67.347656 151.03125 66.078125 151.703125 64.734375 152.148438 L 62.34375 152.894531 L 64.957031 152.523438 L 67.570312 152.148438 L 65.78125 153.714844 C 64.734375 154.535156 63.316406 155.058594 62.570312 154.910156 C 61.820312 154.6875 61.226562 154.910156 61.226562 155.28125 C 61.226562 155.730469 62.195312 155.878906 63.6875 155.582031 C 65.929688 155.207031 66.003906 155.207031 64.660156 156.253906 C 63.839844 156.847656 62.570312 157.371094 61.820312 157.371094 C 61.074219 157.371094 60.476562 157.667969 60.476562 158.117188 C 60.476562 159.535156 63.988281 158.863281 65.554688 157.148438 C 67.273438 155.355469 69.140625 150.882812 68.46875 150.210938 C 68.242188 149.988281 67.871094 150.136719 67.644531 150.582031 Z M 67.644531 150.582031 "/>
</g>
</svg>
